<svg xmlns="http://www.w3.org/2000/svg" width="12.801" height="13.08" viewBox="0 0 12.801 13.08">
  <path id="icon_Invoice" d="M28.257,0a2.116,2.116,0,0,0-1,.541l-.467.4a.487.487,0,0,1-.6,0l-.474-.4A2.26,2.26,0,0,0,24.476,0a2.26,2.26,0,0,0-1.24.54l-.475.4a.493.493,0,0,1-.607,0l-.476-.4A2.3,2.3,0,0,0,20.438,0,2.3,2.3,0,0,0,19.2.54l-.475.4a.494.494,0,0,1-.607,0l-.476-.4A2.43,2.43,0,0,0,16.6,0c-.435,0-.6.515-.6.956V12.124c0,.441.166.956.6.956a2.337,2.337,0,0,0,1.023-.539l.484-.4a.5.5,0,0,1,.612,0l.477.4a2.3,2.3,0,0,0,1.241.54,2.3,2.3,0,0,0,1.24-.54l.476-.4a.494.494,0,0,1,.608,0l.476.4a2.3,2.3,0,0,0,1.24.54,2.3,2.3,0,0,0,1.24-.54l.476-.4a.494.494,0,0,1,.607,0l.476.4a2.04,2.04,0,0,0,.981.54c.358,0,.544-.339.544-.956V.956C28.8.339,28.615,0,28.257,0ZM25.994,9.825H22.845V8.69h3.149Zm0-2.747H18.875V6h7.119Zm0-2.688H18.875V3.255h7.119Z" transform="translate(-16)" fill="#4d4d4d"/>
</svg>
