<svg id="icon_dashboard" xmlns="http://www.w3.org/2000/svg" width="15.31" height="16.332" viewBox="0 0 15.31 16.332">
  <path id="Path_37" data-name="Path 37" d="M150.5.478V4.431a1.382,1.382,0,0,1,1.275.148l1.957,1.466a1.406,1.406,0,0,1,.6,1.163,1.432,1.432,0,0,1-.639,1.194l-1.87,1.4a1.385,1.385,0,0,1-1.318.179v3a.478.478,0,0,0,.478.478h4.306V3.349a1.443,1.443,0,0,1,.643-1.2L158.8,0h-7.819A.478.478,0,0,0,150.5.478Zm0,0" transform="translate(-145.716)" fill="#4d4d4d"/>
  <path id="Path_38" data-name="Path 38" d="M335.284.479a.478.478,0,0,0-.725-.41L330.732,2.94a.478.478,0,0,0-.232.41v12.5a.478.478,0,0,0,.725.41l3.828-2.871a.479.479,0,0,0,.232-.41ZM331.936,9.6a.478.478,0,1,1,.478-.478A.478.478,0,0,1,331.936,9.6Zm0,0" transform="translate(-319.974 0)" fill="#4d4d4d"/>
  <path id="Path_39" data-name="Path 39" d="M.978,168.872H5.284v.478a.478.478,0,0,0,.744.4l1.914-1.435a.478.478,0,0,0,0-.8l-1.914-1.436a.478.478,0,0,0-.744.4v.479H.978a.478.478,0,0,0-.478.478v.957A.478.478,0,0,0,.978,168.872Zm0,0" transform="translate(-0.5 -160.706)" fill="#4d4d4d"/>
</svg>
