<svg id="icon_orders" xmlns="http://www.w3.org/2000/svg" xmlns:xlink="http://www.w3.org/1999/xlink" width="14.906" height="13.652" viewBox="0 0 14.906 13.652">
  <defs>
    <clipPath id="clip-path">
      <path id="Path_2" data-name="Path 2" d="M20.549,13.652c4.249,0,7.453-.893,7.453-2.076,0-2.581,0-5.505-.946-7.769C25.985,1.245,23.857,0,20.55,0,13.1,0,13.1,6.418,13.1,11.576,13.1,12.759,16.3,13.652,20.549,13.652Z" transform="translate(-13.096)" fill="#4d4d4d"/>
    </clipPath>
  </defs>
  <g id="Group_2" data-name="Group 2" transform="translate(0)">
    <g id="Mask_Group_1" data-name="Mask Group 1" transform="translate(0)" clip-path="url(#clip-path)">
      <g id="specialist-user" transform="translate(1.59)">
        <path id="Path_1307" data-name="Path 1307" d="M5.193,7.7A3.7,3.7,0,0,0,8.35,3.85C8.35,1.724,8.063,0,5.193,0S2.037,1.724,2.037,3.85A3.7,3.7,0,0,0,5.193,7.7ZM2.509,3.207a1.737,1.737,0,0,1,1.733-.9s.615,1.491,3.633.822c.012.238.016.481.016.723A3.433,3.433,0,0,1,6.812,6.456a2.757,2.757,0,0,1-1.619.784,2.757,2.757,0,0,1-1.619-.784A3.433,3.433,0,0,1,2.5,3.85C2.5,3.635,2.5,3.419,2.509,3.207Z" transform="translate(0.669)" fill="#4d4d4d"/>
        <path id="Path_1308" data-name="Path 1308" d="M12.258,8.381c-.161-1-.493-2.293-1.158-2.751-.454-.313-2.04-1.16-2.717-1.522L8.371,4.1a.221.221,0,0,0-.241.021,2.876,2.876,0,0,1-1.155.558.221.221,0,0,0-.159.137L6.4,5.922l-.419-1.1A.221.221,0,0,0,5.82,4.68a2.876,2.876,0,0,1-1.155-.558A.221.221,0,0,0,4.424,4.1C3.755,4.459,2.151,5.323,1.7,5.628.932,6.144.6,8.012.537,8.381a.222.222,0,0,0,.01.109c.027.077.73,1.9,5.85,1.9s5.823-1.818,5.85-1.9A.221.221,0,0,0,12.258,8.381ZM9.9,7.77l-1,.312-1-.312V7.231h2Z" transform="translate(-0.535 3.267)" fill="#4d4d4d"/>
      </g>
    </g>
  </g>
</svg>
