<svg id="icon_role" xmlns="http://www.w3.org/2000/svg" width="15.71" height="15.39" viewBox="0 0 15.71 15.39">
  <g id="Group_440" data-name="Group 440" transform="translate(0 0)">
    <g id="Group_439" data-name="Group 439" transform="translate(0 0)">
      <path id="Path_1323" data-name="Path 1323" d="M13.63,9.568l-.075-.027-.292-.7.032-.072c.884-2.005.823-2.065.677-2.21L12.792,5.412a.315.315,0,0,0-.206-.081,7.539,7.539,0,0,0-2.009.789l-.07.031-.719-.289L9.76,5.79c-.819-2.028-.9-2.028-1.107-2.028H6.987c-.2,0-.3,0-1.055,2.032L5.9,5.868l-.715.291L5.12,6.131a11.007,11.007,0,0,0-2.047-.749.316.316,0,0,0-.206.08L1.687,6.616c-.15.148-.212.21.719,2.173l.034.073-.292.7-.072.028C0,10.387,0,10.465,0,10.674v1.632c0,.209,0,.3,2.08,1.042l.074.026.292.694-.031.071c-.884,2.006-.828,2.06-.678,2.21L2.915,17.5a.324.324,0,0,0,.208.081,7.566,7.566,0,0,0,2.009-.789l.07-.033.719.291.028.072c.82,2.028.9,2.028,1.108,2.028H8.723c.209,0,.3,0,1.056-2.033l.028-.074.716-.289.068.028a10.946,10.946,0,0,0,2.044.75.316.316,0,0,0,.207-.08L14.025,16.3c.149-.148.211-.209-.721-2.171l-.035-.074.292-.693.07-.027c2.079-.806,2.079-.885,2.079-1.094V10.607C15.71,10.4,15.71,10.311,13.63,9.568ZM7.855,14.1a2.646,2.646,0,1,1,2.7-2.647A2.677,2.677,0,0,1,7.855,14.1Z" transform="translate(0 -3.762)" fill="#4d4d4d"/>
    </g>
  </g>
</svg>
