<svg height="512pt" viewBox="-54 0 512 512.0002" width="512pt" xmlns="http://www.w3.org/2000/svg"><path d="m175.917969 375.789062c-8.714844.539063-16.246094-6.011718-16.929688-14.714843l-19.472656-248.601563 40.1875-2.476562 11.207031 249.109375c.390625 8.722656-6.28125 16.144531-14.992187 16.683593zm0 0" fill="#dd9666"/><path d="m149.921875 1.707031c-6.976563 13.277344-26.347656 53.113281-25.085937 83.996094.761718 18.652344 16.667968 33.535156 35.292968 32.21875 18.007813-1.277344 31.664063-16.835937 30.550782-34.894531-1.914063-31.058594-26.621094-69.144532-35.308594-81.652344-1.367188-1.96875-4.332032-1.792969-5.449219.332031zm0 0" fill="#ffe169"/><path d="m185.046875 133.972656-48.292969 2.980469c-3.1875.195313-5.933594-2.230469-6.128906-5.421875l-.964844-15.675781c-.199218-3.1875 2.226563-5.933594 5.417969-6.128907l48.292969-2.976562c3.1875-.199219 5.933594 2.226562 6.128906 5.417969l.964844 15.675781c.199218 3.1875-2.226563 5.933594-5.417969 6.128906zm0 0" fill="#45748c"/><path d="m204.386719 397.917969-63.578125-28.226563c-4.953125-2.199218-7.1875-8-4.988282-12.957031l142.222657-320.339844c2.199219-4.957031 8-7.191406 12.957031-4.992187l63.574219 28.226562c4.957031 2.203125 7.191406 8.003906 4.992187 12.957032l-142.222656 320.339843c-2.203125 4.957031-8.003906 7.191407-12.957031 4.992188zm0 0" fill="#d8d8d8"/><path d="m354.578125 59.628906-18.617187-8.265625-150.191407 338.289063 18.617188 8.265625c4.953125 2.199219 10.753906-.035157 12.957031-4.992188l142.222656-320.339843c2.199219-4.953126-.035156-10.757813-4.988281-12.957032zm0 0" fill="#dbcdbd"/><g fill="#45748c"><path d="m263.5625 69.011719-6.273438 14.121093 21.804688 9.679688c1.019531.453125 2.082031.667969 3.128906.667969 2.960938 0 5.789063-1.714844 7.066406-4.59375 1.730469-3.902344-.027343-8.464844-3.925781-10.199219zm0 0"/><path d="m248.425781 136.894531c1.019531.453125 2.082031.667969 3.128907.667969 2.960937 0 5.789062-1.710938 7.066406-4.59375 1.734375-3.898438-.027344-8.464844-3.925782-10.195312l-12.53125-5.566407-6.273437 14.125zm0 0"/><path d="m236.296875 189.207031c1.019531.449219 2.082031.667969 3.128906.667969 2.960938 0 5.789063-1.714844 7.066407-4.59375 1.730468-3.902344-.027344-8.464844-3.925782-10.199219l-21.800781-9.679687-6.273437 14.125zm0 0"/><path d="m175.734375 336.171875-55.089844 24.121094-118.113281-269.730469c-6.660156-15.210938.273438-32.941406 15.484375-39.605469 15.210937-6.660156 32.941406.273438 39.605469 15.484375zm0 0"/></g><path d="m65.859375 85.257812-8.238281-18.816406c-6.664063-15.214844-24.394532-22.144531-39.605469-15.484375-15.210937 6.664063-22.144531 24.394531-15.480469 39.605469l8.238282 18.816406zm0 0" fill="#fc7371"/><path d="m92.496094 228.480469c-2.972656 0-5.808594-1.726563-7.078125-4.628907l-38.601563-88.148437c-1.710937-3.90625.070313-8.464844 3.976563-10.175781 3.910156-1.710938 8.464843.070312 10.179687 3.976562l38.597656 88.148438c1.714844 3.910156-.066406 8.464844-3.976562 10.179687-1.011719.441407-2.0625.648438-3.097656.648438zm0 0" fill="#236575"/><path d="m82.640625 123.574219-55.085937 24.121093-16.777344-38.3125 55.085937-24.121093zm0 0" fill="#ffe169"/><path d="m357.511719 251.023438h-75.285157v29.609374h75.285157c8.894531 0 16.132812 7.238282 16.132812 16.132813v112.941406c0 8.894531-7.238281 16.132813-16.132812 16.132813h-75.285157v29.609375h75.285157c25.222656 0 45.742187-20.519531 45.742187-45.742188v-112.941406c0-25.222656-20.519531-45.742187-45.742187-45.742187zm0 0" fill="#ff8c51"/><path d="m259.820312 512h-163.246093c-31.082031 0-56.277344-25.195312-56.277344-56.277344v-231.152344c0-5.472656 4.4375-9.910156 9.910156-9.910156h255.980469c5.472656 0 9.910156 4.4375 9.910156 9.910156v231.152344c.003906 31.082032-25.195312 56.277344-56.277344 56.277344zm0 0" fill="#ff8c51"/><path d="m306.1875 214.660156h-51.902344v266.449219c0 17.0625-13.832031 30.890625-30.894531 30.890625h36.429687c31.082032 0 56.28125-25.195312 56.28125-56.277344v-231.152344c0-5.472656-4.4375-9.910156-9.914062-9.910156zm0 0" fill="#f26e3b"/><path d="m251.167969 363.332031c0 40.296875-32.671875 72.96875-72.96875 72.96875-40.300781 0-72.96875-32.671875-72.96875-72.96875 0-40.300781 32.667969-72.972656 72.96875-72.972656 40.296875 0 72.96875 32.671875 72.96875 72.972656zm0 0" fill="#f3e8d6"/></svg>